<svg viewBox="0 0 220 220" xmlns="http://www.w3.org/2000/svg"><rect x="10" y="10" width="40" height="40" fill="#ffffff" stroke="#999"/><rect x="50" y="10" width="40" height="40" fill="#ffffff" stroke="#999"/><rect x="90" y="10" width="40" height="40" fill="#ffffff" stroke="#999"/><rect x="130" y="10" width="40" height="40" fill="#ffffff" stroke="#999"/><rect x="170" y="10" width="40" height="40" fill="#ffffff" stroke="#999"/><rect x="10" y="50" width="40" height="40" fill="#ffffff" stroke="#999"/><rect x="50" y="50" width="40" height="40" fill="#ffffff" stroke="#999"/><rect x="90" y="50" width="40" height="40" fill="#dddddd" stroke="#999"/><rect x="130" y="50" width="40" height="40" fill="#ffffff" stroke="#999"/><rect x="170" y="50" width="40" height="40" fill="#ffffff" stroke="#999"/><rect x="10" y="90" width="40" height="40" fill="#ffffff" stroke="#999"/><rect x="50" y="90" width="40" height="40" fill="#ffffff" stroke="#999"/><rect x="90" y="90" width="40" height="40" fill="#dddddd" stroke="#999"/><rect x="130" y="90" width="40" height="40" fill="#ffffff" stroke="#999"/><rect x="170" y="90" width="40" height="40" fill="#ffffff" stroke="#999"/><rect x="10" y="130" width="40" height="40" fill="#ffffff" stroke="#999"/><rect x="50" y="130" width="40" height="40" fill="#dddddd" stroke="#999"/><rect x="90" y="130" width="40" height="40" fill="#ffffff" stroke="#999"/><rect x="130" y="130" width="40" height="40" fill="#ffffff" stroke="#999"/><rect x="170" y="130" width="40" height="40" fill="#ffffff" stroke="#999"/><rect x="10" y="170" width="40" height="40" fill="#ffffff" stroke="#999"/><rect x="50" y="170" width="40" height="40" fill="#ffffff" stroke="#999"/><rect x="90" y="170" width="40" height="40" fill="#ffffff" stroke="#999"/><rect x="130" y="170" width="40" height="40" fill="#ffffff" stroke="#999"/><rect x="170" y="170" width="40" height="40" fill="#ffffff" stroke="#999"/><polyline points="30.0,30.0 30.0,70.0 30.0,110.0 30.0,150.0 30.0,190.0 70.0,190.0 110.0,190.0 150.0,190.0 190.0,190.0" fill="none" stroke="#0070f3" stroke-width="3"/><circle cx="30.0" cy="30.0" r="8" fill="#22c55e"/><circle cx="190.0" cy="190.0" r="8" fill="#ef4444"/></svg>